<svg xmlns="http://www.w3.org/2000/svg" viewBox="0 0 32 32" height="24">
  <defs>
    <filter id="subtle-glow" x="-50%" y="-50%" width="200%" height="200%">
      <feGaussianBlur stdDeviation="1.2" result="blur"/>
      <feMerge>
        <feMergeNode in="blur"/>
        <feMergeNode in="SourceGraphic"/>
      </feMerge>
    </filter>
  </defs>
  <g fill="white">
    <path d="M28 13h2v2h-2z"/>
    <path d="M23.778 4.797l1.414-1.414 1.414 1.414-1.414 1.414z"/>
    <path d="M15 0h2v2h-2z"/>
    <path d="M6.808 6.233 5.393 4.818l1.415-1.414 1.414 1.414z"/>
    <path d="M2 13h2v2H2z"/>
    <path d="M13 30h6v2h-6z"/>
    <path d="M11 26h10v2H11z"/>
  </g>
  <g filter="url(#subtle-glow)" fill="#FFD700">
    <path d="M16 4C10.5 4 6 8.5 6 14c0 4.4 2 6.3 3.5 7.6 1 .9 1.5 1.5 1.5 2.4h2c0-1.8-1.1-2.9-2.2-3.9C9.4 18.9 8 17.5 8 14c0-4.4 3.6-8 8-8s8 3.6 8 8c0 3.5-1.4 4.9-2.8 6.1-1.1 1-2.2 2-2.2 3.9h2c0-.9.5-1.5 1.5-2.4C24 20.3 26 18.4 26 14c0-5.5-4.5-10-10-10z"/>
  </g>
</svg>
